<svg width="64" height="64" xmlns="http://www.w3.org/2000/svg"><g fill="#C00" fill-rule="evenodd"><path d="m32 2.5 1.945 1.85c4.9 4.662 11.512 7.518 18.793 7.518.116 0 .232 0 .347-.002l2.074-.026.648 1.979a33.249 33.249 0 0 1 1.644 10.358c0 15.445-10.517 28.416-24.746 32.095l-.705.183-.705-.183C17.066 52.593 6.55 39.622 6.55 24.177c0-3.613.576-7.096 1.644-10.358l.648-1.98 2.074.027.347.002c7.281 0 13.892-2.856 18.793-7.518L32 2.5ZM13.017 17.503a27.641 27.641 0 0 0-.812 6.674c0 12.534 8.363 23.113 19.795 26.4 11.432-3.287 19.795-13.866 19.795-26.4 0-2.305-.282-4.54-.812-6.674A32.768 32.768 0 0 1 32 10.185a32.769 32.769 0 0 1-18.983 7.318ZM9.007 61.5l4.917-11.472c1.639 1.639 3.278 3.004 4.917 4.097-.547 1.639-1.64 4.097-3.278 7.375M54.896 61.5 49.98 50.028c-1.638 1.639-3.277 3.004-4.916 4.097.546 1.639 1.639 4.097 3.278 7.375"/></g></svg>